<svg width="900" height="500" xmlns="http://www.w3.org/2000/svg">
  <!-- Background -->
  <rect width="900" height="500" fill="#f8fafc"/>
  
  <!-- Header -->
  <rect width="900" height="70" fill="#111827"/>
  <text x="40" y="45" font-family="Arial" font-size="24" font-weight="bold" fill="white">DevBlog</text>
  <text x="700" y="45" font-family="Arial" font-size="14" fill="#9ca3af">Home</text>
  <text x="770" y="45" font-family="Arial" font-size="14" fill="#9ca3af">About</text>
  <text x="830" y="45" font-family="Arial" font-size="14" fill="#3b82f6">Admin</text>
  
  <!-- Featured Post -->
  <rect x="40" y="100" width="550" height="280" fill="white" rx="16"/>
  <rect x="50" y="110" width="530" height="160" fill="#dbeafe" rx="12"/>
  <text x="260" y="200" font-family="Arial" font-size="48" fill="#3b82f6">📝</text>
  <rect x="60" y="285" width="100" height="28" fill="#3b82f6" rx="14"/>
  <text x="78" y="304" font-family="Arial" font-size="12" fill="white">Technology</text>
  <text x="60" y="345" font-family="Arial" font-size="22" font-weight="bold" fill="#111827">Building Modern Web Apps</text>
  <text x="60" y="372" font-family="Arial" font-size="14" fill="#6b7280">A complete guide to building modern web applications...</text>
  
  <!-- Sidebar -->
  <rect x="620" y="100" width="240" height="280" fill="white" rx="16"/>
  <text x="645" y="140" font-family="Arial" font-size="18" font-weight="bold" fill="#111827">Categories</text>
  <text x="645" y="180" font-family="Arial" font-size="14" fill="#6b7280">Technology (12)</text>
  <text x="645" y="210" font-family="Arial" font-size="14" fill="#6b7280">Programming (8)</text>
  <text x="645" y="240" font-family="Arial" font-size="14" fill="#6b7280">Design (5)</text>
  <text x="645" y="270" font-family="Arial" font-size="14" fill="#6b7280">Tutorials (15)</text>
  
  <text x="645" y="320" font-family="Arial" font-size="18" font-weight="bold" fill="#111827">Popular Posts</text>
  <text x="645" y="355" font-family="Arial" font-size="13" fill="#3b82f6">Getting Started with React</text>
  <text x="645" y="375" font-family="Arial" font-size="13" fill="#3b82f6">PHP Best Practices</text>
  
  <!-- Blog Posts Grid -->
  <rect x="40" y="400" width="260" height="85" fill="white" rx="12"/>
  <rect x="50" y="410" width="80" height="65" fill="#fef3c7" rx="8"/>
  <text x="145" y="440" font-family="Arial" font-size="14" font-weight="bold" fill="#111827">CSS Grid Guide</text>
  <text x="145" y="460" font-family="Arial" font-size="12" fill="#6b7280">Jan 20, 2026</text>
  
  <rect x="320" y="400" width="260" height="85" fill="white" rx="12"/>
  <rect x="330" y="410" width="80" height="65" fill="#d1fae5" rx="8"/>
  <text x="425" y="440" font-family="Arial" font-size="14" font-weight="bold" fill="#111827">Node.js Tips</text>
  <text x="425" y="460" font-family="Arial" font-size="12" fill="#6b7280">Jan 18, 2026</text>
  
  <rect x="600" y="400" width="260" height="85" fill="white" rx="12"/>
  <rect x="610" y="410" width="80" height="65" fill="#ede9fe" rx="8"/>
  <text x="705" y="440" font-family="Arial" font-size="14" font-weight="bold" fill="#111827">API Design</text>
  <text x="705" y="460" font-family="Arial" font-size="12" fill="#6b7280">Jan 15, 2026</text>
</svg>
